<svg id="color" enable-background="new 0 0 24 24" height="512" viewBox="0 0 24 24" width="512" xmlns="http://www.w3.org/2000/svg"><path d="m18 15.12v-7.37c0-.466.418-.822.895-.736 3.387.667 5.105 1.712 5.105 3.106 0 1.344-2.031 5.087-5.095 5.733-.451.103-.905-.247-.905-.733z" fill="#0097a7"/><path d="m5.107 15.847c-2.795-.541-5.107-4.126-5.107-5.727 0-1.395 1.718-2.439 5.105-3.106.471-.087.895.267.895.736v7.36c0 .459-.414.825-.893.737z" fill="#0097a7"/><path d="m12 14c-.49 0-12-.044-12-3.88v9.63c0 2.79 6.037 4.25 12 4.25s12-1.46 12-4.25v-9.63c0 3.069-7.85 3.88-12 3.88z" fill="#00bcd4"/><path d="m5.107 15.847c-2.795-.541-5.107-4.126-5.107-5.727 0-1.395 1.718-2.439 5.105-3.106.471-.087.895.267.895.736v7.36c0 .459-.414.825-.893.737z" fill="#0097a7"/><path d="m11.981 24h.019c-.006 0-.013 0-.019 0zm-.018 0h.011c-.004 0-.008 0-.011 0zm-.019 0h.008c-.002 0-.005 0-.008 0zm-.019 0h.01c-.004 0-.007 0-.01 0zm-.02 0h.009c-.002 0-.006 0-.009 0zm-.019 0h.01c-.003 0-.006 0-.01 0zm-.027 0h.011c-.004 0-.008 0-.011 0zm-.018 0h.009c-.003 0-.006 0-.009 0zm-.019 0h.008c-.003 0-.006 0-.008 0zm-.019-.001h.007c-.002 0-.004 0-.007 0zm-.02 0h.009c-.003 0-.006 0-.009 0zm-.014 0h.004c-.001 0-.002 0-.004 0zm-.033 0h.009c-.003 0-.006 0-.009 0zm-.019 0h.012c-.004 0-.008 0-.012 0zm-.018 0h.01c-.004 0-.007 0-.01 0zm-.018 0h.007c-.002 0-.005 0-.007 0zm-.018-.001h.006c-.002 0-.004 0-.006 0zm-.03 0h.018c-.006 0-.012 0-.018 0zm-.019 0h.011c-.003 0-.007 0-.011 0zm-.019 0h.01c-.004 0-.007 0-.01 0zm-.02 0h.011c-.003 0-.007 0-.011 0zm-.017-.001h.009c-.003 0-.007 0-.009 0zm-.019 0h.008c-.003 0-.005 0-.008 0zm-.028 0h.01c-.004 0-.007 0-.01 0zm-.019-.001h.009c-.003.001-.006 0-.009 0zm-.02 0h.01c-.003 0-.007 0-.01 0zm-.02 0h.012c-.004 0-.008 0-.012 0zm-.019 0h.012c-.004 0-.008 0-.012 0zm-.021-.001h.013c-.005 0-.009 0-.013 0zm-.024 0h.019c-.007 0-.013 0-.019 0zm-.02 0h.012c-.004 0-.007 0-.012 0zm-.018-.001h.011c-.004 0-.007 0-.011 0zm-.021 0h.012c-.004 0-.008 0-.012 0zm-.02-.001h.014c-.005.001-.01.001-.014 0zm-.045 0c.013 0 .026.001.039.001-.012-.001-.026-.001-.039-.001zm-.02-.001h.018c-.006 0-.012 0-.018 0zm-.02 0h.019c-.006 0-.013 0-.019 0zm-.02-.001h.018c-.006.001-.012 0-.018 0zm-11.204-13.871v9.63c0 2.666 5.51 4.117 11.202 4.241-3.22-.07-6.379-.566-8.522-1.471l3.88-3.86c.315-.315.718-.473 1.119-.473s.801.158 1.111.473l1.99 1.9 1.22-1.216v-5.344c-.49 0-12-.044-12-3.88z" fill="#00a4b9"/><path d="m21.65 22.38c-2.3 1.07-5.99 1.62-9.65 1.62-3.49 0-7-.5-9.32-1.48l3.88-3.86c.63-.63 1.61-.63 2.23 0l1.99 1.9 3.07-3.06c.64-.64 1.58-.67 2.2-.08z" fill="#e0f7fa"/><circle cx="10.5" cy="16.5" fill="#ffc107" r="1.5"/><path d="m7.679 18.187c-.401 0-.804.158-1.119.473l-3.88 3.86c2.143.905 5.302 1.401 8.522 1.471h.002.018.002.019.001.018.001c.014 0 .027.001.04.001h.005.014.007.012.009.011.008.012.008.019.005.013.008.012.006.012.008.01.009.009.01.01.018.008.011.009.009.011.009.01.009.011.008.018.012.006.012.007.01.01.008.012.008.009.024.004.01.009.011.007.011.008.011.009.009.011.017.01.009s.007 0 .009 0h.01.01.01.008.01.011.007.019v-4.656l-1.22 1.216-1.99-1.9c-.309-.307-.709-.465-1.11-.465z" fill="#c3d7da"/><path d="m10.5 15c-.828 0-1.5.671-1.5 1.5s.672 1.5 1.5 1.5z" fill="#dea806"/><g fill="#607d8b"><path d="m20.5 3c-.827 0-1.5-.673-1.5-1.5s.673-1.5 1.5-1.5 1.5.673 1.5 1.5-.673 1.5-1.5 1.5z"/><path d="m16.75 9h-1c-.689 0-1.25-.561-1.25-1.25v-3.5c0-.689.561-1.25 1.25-1.25h1c.689 0 1.25.561 1.25 1.25v3.5c0 .689-.561 1.25-1.25 1.25zm-.75-1.5h.5v-3h-.5z"/><path d="m7.75 9h-1c-.414 0-.75-.336-.75-.75s.336-.75.75-.75h.75v-.75h-.75c-.414 0-.75-.336-.75-.75s.336-.75.75-.75h1c.689 0 1.25.561 1.25 1.25v1.25c0 .689-.561 1.25-1.25 1.25zm0-2.25h.01z"/><path d="m7.75 6.75h-1c-.414 0-.75-.336-.75-.75s.336-.75.75-.75h.75v-.75h-.75c-.414 0-.75-.336-.75-.75s.336-.75.75-.75h1c.689 0 1.25.561 1.25 1.25v1.25c0 .689-.561 1.25-1.25 1.25zm0-2.25h.01z"/><path d="m12.25 9h-1c-.689 0-1.25-.561-1.25-1.25v-3.5c0-.689.561-1.25 1.25-1.25h1.5c.414 0 .75.336.75.75s-.336.75-.75.75h-1.25v.75h.75c.689 0 1.25.561 1.25 1.25v1.25c0 .689-.561 1.25-1.25 1.25zm-.75-1.5h.5v-.75h-.5z"/></g><path d="m18 6h-1.5v1.5h-.5v-1.5h-1.5v1.75c0 .69.561 1.25 1.25 1.25h1c.689 0 1.25-.561 1.25-1.25z" fill="#546d79"/><path d="m8.896 6c-.193.441-.634.75-1.146.75h-1c-.414 0-.75-.336-.75-.75 0 .414.336.75.75.75h.75v.75h-.75c-.414 0-.75.336-.75.75s.336.75.75.75h1c.689 0 1.25-.561 1.25-1.25v-1.25c0-.178-.037-.347-.104-.5z" fill="#546d79"/><path d="m8.896 6h-2.896c0 .414.336.75.75.75h1c.512 0 .953-.309 1.146-.75z" fill="#546d79"/><path d="m12 6.75h-.5v.75h.5z" fill="#dedede"/><path d="m11.5 7.5v-.75h.5v.75zm1.896-1.5h-3.396v1.75c0 .689.561 1.25 1.25 1.25h1c.689 0 1.25-.561 1.25-1.25v-1.25c0-.178-.037-.347-.104-.5z" fill="#546d79"/><path d="m22 1.5h-3c0 .827.673 1.5 1.5 1.5s1.5-.673 1.5-1.5z" fill="#546d79"/></svg>